# xmcd
#
# Track frame offsets:
#	150
#	20600
#	41037
#	55608
#	73597
#	90179
#	101279
#	120951
#	137659
#	151178
#	165761
#	184354
#	196429
#
# Disc length: 2864 seconds
#
# Revision: 0
# Processed by: cddbd v1.5.2PL0 Copyright (c) Steve Scherf et al.
# Submitted via: EasyCDDAExtractor 16.0.1.1
#
DISCID=980b2e0d
DTITLE=Mike Cullison - Blue Collar Friend
DYEAR=2007
DGENRE=Country
TTITLE0=Wish I Didn't Like Whiskey
TTITLE1=Blue Collar Tired
TTITLE2=Waitin' In Your Welfare Line
TTITLE3=Pour Hank On The Pain
TTITLE4=Going Up The Country
TTITLE5=Break My Fall
TTITLE6=Hurt That Bad Again
TTITLE7=More Of The Same
TTITLE8=Jealous Sea
TTITLE9=Where's Joe Friday
TTITLE10=Miss Maggie Rose
TTITLE11=This Old Hat
TTITLE12=The Grapes Of Wrath Are Ripe Again
EXTD=
EXTT0=
EXTT1=
EXTT2=
EXTT3=
EXTT4=
EXTT5=
EXTT6=
EXTT7=
EXTT8=
EXTT9=
EXTT10=
EXTT11=
EXTT12=
PLAYORDER=
